<?xml version="1.0" encoding="UTF-8"?>
<svg width="16px" height="16px" viewBox="0 0 16 16" version="1.1" xmlns="http://www.w3.org/2000/svg" xmlns:xlink="http://www.w3.org/1999/xlink">
    <!-- Generator: Sketch 64 (93537) - https://sketch.com -->
    <title>Artboard</title>
    <desc>Created with Sketch.</desc>
    <defs>
        <linearGradient x1="1.4609375%" y1="93.3752694%" x2="98.5390625%" y2="6.62473059%" id="linearGradient-1">
            <stop stop-color="#6F00D8" offset="0%"></stop>
            <stop stop-color="#1C6AFF" offset="100%"></stop>
        </linearGradient>
    </defs>
    <g id="Artboard" stroke="none" stroke-width="1" fill="none" fill-rule="evenodd">
        <path d="M16,9.8125 C16,9.15670869 15.495423,8.625 14.8732589,8.625 L12.3767411,8.625 C11.754577,8.625 11.25,9.15670869 11.25,9.8125 C11.25,10.4682913 11.754577,11 12.3767411,11 L14.8732589,11 C15.495423,11 16,10.4682913 16,9.8125 M16,5.3125 C16,4.65688127 15.4955868,4.125 14.8730951,4.125 L12.3769049,4.125 C11.754577,4.125 11.25,4.65688127 11.25,5.3125 C11.25,5.96829131 11.754577,6.5 12.3769049,6.5 L14.8730951,6.5 C15.4955868,6.5 16,5.96829131 16,5.3125 M6.08906748,9.49285349 L6.08906748,5.06742919 C6.08906748,3.52164857 7.31894407,2.26412848 8.83054671,2.26412848 L14.8928858,2.26412848 C15.5042844,2.26412848 16,1.75720458 16,1.13214651 C16,0.506923905 15.5042844,0 14.8928858,0 L8.83054671,0 C6.09807756,0 3.875,2.27317776 3.875,5.06742919 L3.875,9.49285349 C3.875,10.1180761 4.37071557,10.625 4.98211419,10.625 C5.59351281,10.625 6.08906748,10.1180761 6.08906748,9.49285349 M5.06258218,15.125 C3.71014952,15.125 2.4389154,14.5848817 1.48277772,13.604136 C0.526640043,12.6230531 0,11.3188772 0,9.9313987 L0,5.28533542 C0,4.64454562 0.506422588,4.125 1.13102688,4.125 C1.75563118,4.125 2.26205377,4.64454562 2.26205377,5.28533542 L2.26205377,9.9313987 C2.26205377,10.6989974 2.55331661,11.4203918 3.08225783,11.9630396 C3.61103468,12.5056874 4.31437199,12.8044978 5.06258218,12.8044978 C6.60666975,12.8044978 7.86294623,11.5156672 7.86294623,9.9313987 L7.86294623,5.28533542 C7.86294623,4.64454562 8.36936882,4.125 8.99397312,4.125 C9.61857741,4.125 10.125,4.64454562 10.125,5.28533542 L10.125,9.9313987 C10.125,12.7952232 7.85390591,15.125 5.06258218,15.125" id="Fill-1" fill="url(#linearGradient-1)"></path>
    </g>
</svg>